<?xml version="1.0" encoding="UTF-8"?>
<!-- Generator: Adobe Illustrator 22.1.0, SVG Export Plug-In . SVG Version: 6.00 Build 0)  -->
<svg version="1.1" id="Calque_1" xmlns="http://www.w3.org/2000/svg" xmlns:xlink="http://www.w3.org/1999/xlink" x="0px" y="0px" viewBox="0 0 1920 257" style="enable-background:new 0 0 1920 257;" xml:space="preserve">
<style type="text/css">
	.st0{fill:#FFFFFF;}
</style>
<g>
	<path class="st0" d="M1920,257H0v-35.5c0.2,0,0.4,0.1,0.6,0.1c0.4,0,0.7,0.1,1.1,0.1c2.8,0.3,5.6,0.6,8.5,0.9   c0.6,0.1,1.2,0.1,1.7,0.2c0.7,0.1,1.4,0.2,2.2,0.2c4.1,0.4,8.1,0.8,12.2,1.2l104.2,9.3c9.7,0.5,19.4,1,29.4,1.5   c119.8,6.3,229.4-0.5,342.3-25.4c106.9-23.6,207.9-55.8,316.1-77.5c147.3-29.6,311.8-37.7,457.8-6c105.3,22.9,196.4,65.3,303.1,86   c104.7,20.3,218.9,18.3,326.7,4.9c4.7-0.6,9.4-1.2,14-1.8V257z"/>
</g>
</svg>