<?xml version="1.0" encoding="UTF-8"?>
<!-- Generator: Adobe Illustrator 22.1.0, SVG Export Plug-In . SVG Version: 6.00 Build 0)  -->
<svg version="1.1" id="Calque_1" xmlns="http://www.w3.org/2000/svg" xmlns:xlink="http://www.w3.org/1999/xlink" x="0px" y="0px" viewBox="0 0 1920 1080" style="enable-background:new 0 0 1920 1080;" xml:space="preserve">
<style type="text/css">
	.st0{fill:url(#SVGID_1_);}
	.st1{fill:url(#SVGID_2_);}
	.st2{fill:url(#SVGID_3_);}
</style>
<linearGradient id="SVGID_1_" gradientUnits="userSpaceOnUse" x1="892.4116" y1="891.767" x2="845.9769" y2="1133.4387" gradientTransform="matrix(1 0 0 -1 0 1080)">
	<stop offset="0" style="stop-color:#197BFB"/>
	<stop offset="1" style="stop-color:#3789FB"/>
</linearGradient>
<path class="st0" d="M735.3,0C698.7,63.1,652,120.3,577.6,162.4c-157.5,88.9-343,43.1-489.7,12.5c-30.7-6.4-60-9-87.9-8.4V1080h1920  V0H735.3z"/>
<linearGradient id="SVGID_2_" gradientUnits="userSpaceOnUse" x1="929.6498" y1="677.2986" x2="863.2434" y2="977.708" gradientTransform="matrix(1 0 0 -1 0 1080)">
	<stop offset="0" style="stop-color:#197BFB"/>
	<stop offset="1" style="stop-color:#3789FB"/>
</linearGradient>
<path class="st1" d="M1590.3,0c-110.2,143.4-139.3,253.3-267.1,286.5C1149,331.8,1090.4,143.6,870,139.8  c-285.9-5-325.7,294.8-745.9,437.2C79.5,592.2,38.2,603.2,0,611.7V1080h1920V0H1590.3z"/>
<linearGradient id="SVGID_3_" gradientUnits="userSpaceOnUse" x1="966.4839" y1="295.031" x2="918.4863" y2="677.5118" gradientTransform="matrix(1 0 0 -1 0 1080)">
	<stop offset="0" style="stop-color:#197BFB"/>
	<stop offset="1" style="stop-color:#3789FB"/>
</linearGradient>
<path class="st2" d="M1770.2,450.3c-295.2,97.1-383.3-25-645.3,109.9C928.1,661.5,824.9,809,673.6,773  c-88.2-21-85.4-78.7-182.4-100.5c-155-34.8-324.1,76.1-413.8,191.7C63.2,882.5,24.7,936.6,0,995.4v84.6h1920V386.6  C1875.3,410.3,1825.6,432,1770.2,450.3z"/>
</svg>